<svg height="512pt" viewBox="0 -4 512.00029 512" width="512pt" xmlns="http://www.w3.org/2000/svg"><path d="m494.316406 354.695312c-1.609375 0-3.246094-.421874-4.730468-1.308593l-224.082032-134.027344c-4.375-2.617187-5.796875-8.285156-3.183594-12.660156 2.613282-4.375 8.28125-5.800781 12.660157-3.183594l224.082031 134.027344c4.375 2.617187 5.800781 8.285156 3.183594 12.660156-1.730469 2.890625-4.789063 4.492187-7.929688 4.492187zm0 0" fill="#83b2c6"/><path d="m500.089844 247.363281-106.269532-61.355469v-93.34375c0-6.371093-5.164062-11.539062-11.539062-11.539062-6.371094 0-11.535156 5.167969-11.535156 11.539062v80.019532l-91.273438-52.695313v-92.011719c0-6.117187-7.066406-11.910156-13.84375-7.992187l-116.5625 67.292969v-64.859375c0-5.097657-4.132812-9.230469-9.230468-9.230469-5.097657 0-9.230469 4.132812-9.230469 9.230469v75.515625l-125.792969 72.625c-4.414062 2.550781-5.925781 8.195312-3.378906 12.609375 1.710937 2.960937 4.8125 4.617187 8.003906 4.617187 1.566406 0 3.152344-.398437 4.605469-1.238281l116.5625-67.292969v76.023438l-126.945313 73.292968c-1.5.867188-2.722656 2.023438-3.65624975 3.351563v13.253906c2.21093775 3.160157 5.76953175 4.925781 9.43359375 4.925781 1.957031 0 3.941406-.5 5.757812-1.546874l115.410157-66.632813v59.476563l-125.792969 72.625c-4.414062 2.550781-5.925781 8.195312-3.378906 12.609374 1.710937 2.960938 4.8125 4.617188 8.003906 4.617188 1.566406 0 3.152344-.398438 4.605469-1.238281l260.8125-150.578125c4.039062-2.332032 4.617187-6.046875 4.617187-7.996094v-64.804688l91.273438 52.699219v81.785157c0 6.375 5.164062 11.539062 11.535156 11.539062 6.375 0 11.539062-5.164062 11.539062-11.539062v-68.464844l94.734376 54.695312c5.519531 3.1875 12.578124 1.292969 15.761718-4.222656 3.183594-5.519531 1.292969-12.578125-4.226562-15.761719zm-239.078125-41.253906-111.945313 64.628906v-59.472656l111.945313-64.632813zm0-86.121094-111.945313 64.632813v-76.027344l111.945313-64.628906zm0 0" fill="#83b2c6"/><path d="m494.324219 345.464844-224.082031-134.027344-260.8125 150.582031 228.109374 131.699219zm0 0" fill="#32cc77"/><path d="m192.847656 331.804688 73.578125 42.480468c14.066407 8.121094 14.066407 28.421875 0 36.542969-17.710937 10.226563-39.535156 10.226563-57.25 0l-73.578125-42.480469c-14.066406-8.121094-14.066406-28.421875 0-36.542968 17.714844-10.226563 39.535156-10.226563 57.25 0zm0 0" fill="#bf6b16"/><g fill="#249155"><path d="m177.738281 317.46875c4.109375-4.109375 5.453125-9.929688 4.054688-15.167969-5.238281-1.398437-11.058594-.054687-15.167969 4.054688-.21875.21875-.398438.460937-.601562.691406-.523438-.6875-1.097657-1.351563-1.722657-1.976563-5.066406-5.0625-12.230469-6.71875-18.683593-5-1.71875 6.457032-.066407 13.621094 4.996093 18.683594 2.777344 2.777344 6.191407 4.488282 9.765625 5.222656v22.742188c0 2.546875 2.066406 4.613281 4.617188 4.613281 2.546875 0 4.613281-2.066406 4.613281-4.613281v-24.546875c.027344-.148437.066406-.292969.089844-.445313 2.941406-.578124 5.757812-1.976562 8.039062-4.257812zm0 0"/><path d="m215.105469 338.894531c4.109375-4.109375 5.453125-9.929687 4.058593-15.167969-5.242187-1.394531-11.0625-.054687-15.171874 4.054688-.21875.222656-.398438.460938-.601563.691406-.519531-.6875-1.09375-1.347656-1.722656-1.976562-5.0625-5.0625-12.230469-6.71875-18.683594-4.996094-1.71875 6.453125-.066406 13.617188 4.996094 18.679688 2.777343 2.777343 6.191406 4.492187 9.765625 5.222656v22.742187c0 2.546875 2.066406 4.613281 4.613281 4.613281 2.550781 0 4.617187-2.066406 4.617187-4.613281v-24.546875c.027344-.148437.066407-.292968.089844-.445312 2.945313-.578125 5.757813-1.976563 8.039063-4.257813zm0 0"/><path d="m252.472656 360.320312c4.113282-4.109374 5.453125-9.929687 4.058594-15.167968-5.242188-1.394532-11.058594-.054688-15.171875 4.058594-.21875.21875-.394531.457031-.597656.6875-.523438-.6875-1.097657-1.347657-1.726563-1.976563-5.0625-5.0625-12.226562-6.71875-18.683594-4.996094-1.71875 6.453125-.0625 13.617188 4.996094 18.679688 2.777344 2.777343 6.191406 4.492187 9.769532 5.222656v22.742187c0 2.546876 2.066406 4.613282 4.613281 4.613282 2.550781 0 4.617187-2.066406 4.617187-4.613282v-24.546874c.027344-.148438.0625-.292969.085938-.445313 2.945312-.578125 5.757812-1.976563 8.039062-4.257813zm0 0"/></g><path d="m299.765625 270.65625 73.578125 42.480469c14.0625 8.121093 14.0625 28.421875 0 36.542969-17.714844 10.226562-39.539062 10.226562-57.25 0l-73.578125-42.480469c-14.066406-8.121094-14.066406-28.421875 0-36.542969 17.710937-10.226562 39.535156-10.226562 57.25 0zm0 0" fill="#bf6b16"/><path d="m284.652344 256.320312c4.113281-4.109374 5.453125-9.929687 4.058594-15.171874-5.242188-1.394532-11.058594-.050782-15.167969 4.058593-.222657.21875-.398438.460938-.601563.6875-.523437-.6875-1.097656-1.347656-1.726562-1.976562-5.0625-5.0625-12.226563-6.714844-18.683594-4.996094-1.71875 6.453125-.0625 13.621094 5 18.683594 2.773438 2.777343 6.1875 4.488281 9.765625 5.21875v22.742187c0 2.550782 2.066406 4.617188 4.613281 4.617188 2.550782 0 4.617188-2.066406 4.617188-4.617188v-24.542968c.027344-.148438.0625-.296876.085937-.445313 2.945313-.578125 5.757813-1.976563 8.039063-4.257813zm0 0" fill="#249155"/><path d="m322.023438 277.746094c4.109374-4.113282 5.453124-9.929688 4.054687-15.171875-5.238281-1.394531-11.058594-.050781-15.167969 4.058593-.21875.21875-.398437.460938-.601562.6875-.523438-.6875-1.097656-1.347656-1.722656-1.976562-5.0625-5.0625-12.230469-6.714844-18.683594-4.996094-1.71875 6.453125-.066406 13.621094 4.996094 18.683594 2.777343 2.777344 6.191406 4.488281 9.765624 5.222656v22.738282c0 2.550781 2.066407 4.617187 4.617188 4.617187 2.546875 0 4.613281-2.066406 4.613281-4.617187v-24.542969c.027344-.148438.066407-.296875.089844-.445313 2.941406-.578125 5.753906-1.976562 8.039063-4.257812zm0 0" fill="#249155"/><path d="m359.390625 299.171875c4.109375-4.113281 5.453125-9.929687 4.054687-15.171875-5.238281-1.394531-11.058593-.050781-15.167968 4.058594-.21875.21875-.398438.460937-.601563.6875-.523437-.6875-1.09375-1.347656-1.722656-1.976563-5.0625-5.0625-12.230469-6.714843-18.683594-4.996093-1.71875 6.453124-.066406 13.621093 4.996094 18.683593 2.777344 2.773438 6.191406 4.488281 9.765625 5.21875v22.742188c0 2.550781 2.066406 4.613281 4.617188 4.613281 2.546874 0 4.613281-2.0625 4.613281-4.613281v-24.542969c.027343-.148438.066406-.296875.089843-.445312 2.945313-.578126 5.757813-1.976563 8.039063-4.257813zm0 0" fill="#249155"/><path d="m506.230469 149.683594-228.105469-131.699219c-1.335938-.769531-2.816406-1.265625-4.351562-1.457031l-132.421876-16.421875c-6.726562-.816407-9.65625 3.398437-10.566406 4.417969l-128.390625 166.996093c-2.582031 3.757813-2.39062475 7.007813-2.39062475 7.035157v183.464843c0 4.121094 2.19921875 7.929688 5.76953175 9.992188l228.109374 131.699219c4.425782 2.125 9.855469.988281 11.539063 0l256.785156-148.253907c3.570313-2.0625 5.769531-5.871093 5.769531-9.992187l-.003906-177.0625c.960938-.824219 1.8125-1.800782 2.480469-2.957032 3.183594-5.519531 1.296875-12.578124-4.222656-15.761718zm-483.152344 48.851562 78.121094 45.105469v73.363281l-78.121094-45.101562zm101.195313 58.425782 103.839843 59.953124v73.363282l-103.839843-59.949219zm90.625-224.484376 53.796874 31.0625-19.722656-2.355468-54.003906-31.175782zm155.03125 65.15625 79.363281 45.824219-7.03125-1.027343-76.4375-44.132813c.09375.003906.1875.015625.28125.015625 1.332031.003906 2.617187-.25 3.824219-.679688zm91.96875 70.984376-82.316407 47.523437v-59.542969zm-69.054688-33.402344-20.945312-3.058594-72.195313-41.679688 19.726563 2.351563zm-70.390625 183.507812c-3.570313 2.058594-5.769531 5.867188-5.769531 9.992188v23.75l-65.492188 37.8125v-73.363282l105.316406-60.804687v42.953125zm34.054687-141.53125v52.273438l-72.269531 41.722656zm-213.589843-150.589844 84.863281 48.996094-45.238281 55.847656-83.269531-48.078124zm105.097656 60.675782 102.855469 59.382812-43.644532 56.769532-104.453124-60.304688zm45.023437 134.605468-56.371093 73.324219-107.03125-61.796875 58.433593-72.132812zm-64.925781 195.042969v56.808594l-103.839843-59.953125v-56.808594zm23.078125 0 65.492188-37.816406v56.8125l-65.492188 37.8125zm88.566406-81.550781 65.84375-38.015625v87.226563l-65.84375 38.015624zm83.152344-67.992188c-3.570312-2.0625-7.96875-2.058593-11.539062 0l-31.789063 18.355469v-42.953125l105.316407-60.804687v73.367187l-56.222657 32.457032v-10.425782c.003907-4.125-2.195312-7.933594-5.765625-9.996094zm-101.054687-197.503906-6.621094-.789062-53.3125-30.78125 6.691406.832031zm-236.769531 31.941406 82.75 47.777344-58.433594 72.132813-80.6875-46.585938zm-62.007813 196.726563 78.121094 45.101563v56.8125l-78.121094-45.105469zm405.601563 72.714844v-56.8125l56.21875-32.457031v56.8125zm0 0" fill="#e6e6e6"/></svg>